<mxfile host="app.diagrams.net" modified="2021-10-16T09:45:12.072Z" agent="5.0 (Macintosh; Intel Mac OS X 10_15_7) AppleWebKit/537.36 (KHTML, like Gecko) Chrome/94.0.4606.81 Safari/537.36" etag="cdgvQFZ6wX5OVnOB3atU" version="15.5.4" type="github">
  <diagram id="PmM1o8ZTshygEwjEGjfE" name="第 1 页">
    <mxGraphModel dx="961" dy="551" grid="1" gridSize="10" guides="1" tooltips="1" connect="1" arrows="1" fold="1" page="1" pageScale="1" pageWidth="827" pageHeight="1169" math="0" shadow="0">
      <root>
        <mxCell id="0" />
        <mxCell id="1" parent="0" />
        <mxCell id="rNKByX9nT-auzysvE_PF-1" value="Object" style="html=1;" vertex="1" parent="1">
          <mxGeometry x="310" y="200" width="110" height="50" as="geometry" />
        </mxCell>
      </root>
    </mxGraphModel>
  </diagram>
</mxfile>
